<?xml version="1.0" encoding="UTF-8" standalone="no"?>
<!-- Created with Inkscape (http://www.inkscape.org/) -->

<svg
   xmlns:dc="http://purl.org/dc/elements/1.1/"
   xmlns:cc="http://creativecommons.org/ns#"
   xmlns:rdf="http://www.w3.org/1999/02/22-rdf-syntax-ns#"
   xmlns:svg="http://www.w3.org/2000/svg"
   xmlns="http://www.w3.org/2000/svg"
   xmlns:sodipodi="http://sodipodi.sourceforge.net/DTD/sodipodi-0.dtd"
   xmlns:inkscape="http://www.inkscape.org/namespaces/inkscape"
   width="32"
   height="32"
   viewBox="0 0 8.4666669 8.4666668"
   version="1.1"
   id="svg859"
   inkscape:version="0.92.3 (2405546, 2018-03-11)"
   sodipodi:docname="pi.svg">
  <defs
     id="defs853" />
  <sodipodi:namedview
     id="base"
     pagecolor="#ffffff"
     bordercolor="#666666"
     borderopacity="1.0"
     inkscape:pageopacity="0.0"
     inkscape:pageshadow="2"
     inkscape:zoom="9.4191176"
     inkscape:cx="17.142857"
     inkscape:cy="8.5714286"
     inkscape:document-units="mm"
     inkscape:current-layer="layer1"
     showgrid="false"
     fit-margin-top="0"
     fit-margin-left="0"
     fit-margin-right="0"
     fit-margin-bottom="0"
     units="px"
     inkscape:window-width="1920"
     inkscape:window-height="1130"
     inkscape:window-x="0"
     inkscape:window-y="0"
     inkscape:window-maximized="1" />
  <metadata
     id="metadata856">
    <rdf:RDF>
      <cc:Work
         rdf:about="">
        <dc:format>image/svg+xml</dc:format>
        <dc:type
           rdf:resource="http://purl.org/dc/dcmitype/StillImage" />
        <dc:title></dc:title>
      </cc:Work>
    </rdf:RDF>
  </metadata>
  <g
     inkscape:label="Calque 1"
     inkscape:groupmode="layer"
     id="layer1"
     transform="translate(-6.9003239,-12.677243)">
    <path
       style="fill:#295e9e;stroke-width:0.08466667;fill-opacity:1"
       d="m 8.8492049,19.97918 c -0.52062,-0.218904 -0.498633,-0.493466 0.167693,-2.094066 0.601256,-1.444293 0.959581,-2.491071 0.879975,-2.570677 -0.02897,-0.02897 -0.215874,-0.0251 -0.415344,0.0086 -0.295415,0.04991 -0.451874,0.154726 -0.843676,0.565202 -0.393285,0.41203 -0.523298,0.498891 -0.712929,0.4763 -0.127559,-0.0152 -0.283735,-0.106149 -0.347058,-0.202118 -0.100768,-0.152718 -0.08911,-0.226661 0.09343,-0.592666 0.242855,-0.486939 0.921268,-1.227139 1.328149,-1.449115 0.256156,-0.139746 0.525214,-0.154398 2.8352441,-0.154398 2.390968,0 2.563495,0.01019 2.7305,0.161289 0.267462,0.241987 0.244207,0.748221 -0.04482,0.975566 -0.189203,0.148827 -0.342136,0.175479 -1.006942,0.175479 -0.636838,0 -0.7935,0.02513 -0.835274,0.133993 -0.02828,0.0737 -0.07436,0.559471 -0.102405,1.0795 -0.05041,0.934915 0.01156,1.419405 0.3164,2.473424 0.126968,0.43901 -0.02062,0.783841 -0.421124,0.983898 -1.025294,0.512153 -1.472611,-1.108198 -0.985582,-3.570149 0.11515,-0.582083 0.209509,-1.070049 0.209687,-1.084368 1.78e-4,-0.01432 -0.160959,-0.01432 -0.358084,0 l -0.358408,0.02604 -0.494142,1.947333 c -0.271773,1.071031 -0.5772141,2.097248 -0.6787541,2.280481 -0.236803,0.427322 -0.588052,0.585388 -0.956536,0.430452 z"
       id="path1496"
       inkscape:connector-curvature="0" />
  </g>
</svg>
