<?xml version="1.0" encoding="UTF-8" standalone="no"?>
<svg
   xmlns:ooo="http://xml.openoffice.org/svg/export"
   xmlns:dc="http://purl.org/dc/elements/1.1/"
   xmlns:cc="http://creativecommons.org/ns#"
   xmlns:rdf="http://www.w3.org/1999/02/22-rdf-syntax-ns#"
   xmlns:svg="http://www.w3.org/2000/svg"
   xmlns="http://www.w3.org/2000/svg"
   xmlns:sodipodi="http://sodipodi.sourceforge.net/DTD/sodipodi-0.dtd"
   xmlns:inkscape="http://www.inkscape.org/namespaces/inkscape"
   version="1.2"
   width="32"
   height="32"
   viewBox="0 0 846.66665 846.66668"
   preserveAspectRatio="xMidYMid"
   xml:space="preserve"
   id="svg97"
   sodipodi:docname="pi1.svg"
   style="fill-rule:evenodd;stroke-width:28.22200012;stroke-linejoin:round"
   inkscape:version="0.92.3 (2405546, 2018-03-11)"
   inkscape:export-filename="/home/test/test.png"
   inkscape:export-xdpi="300"
   inkscape:export-ydpi="300"><metadata
   id="metadata101"><rdf:RDF><cc:Work
       rdf:about=""><dc:format>image/svg+xml</dc:format><dc:type
         rdf:resource="http://purl.org/dc/dcmitype/StillImage" /><dc:title /></cc:Work></rdf:RDF></metadata><sodipodi:namedview
   pagecolor="#ffffff"
   bordercolor="#666666"
   borderopacity="1"
   objecttolerance="10"
   gridtolerance="10"
   guidetolerance="10"
   inkscape:pageopacity="0"
   inkscape:pageshadow="2"
   inkscape:window-width="1920"
   inkscape:window-height="1130"
   id="namedview99"
   showgrid="false"
   units="px"
   fit-margin-top="0"
   fit-margin-left="0"
   fit-margin-right="0"
   fit-margin-bottom="0"
   inkscape:zoom="13.455444"
   inkscape:cx="17.818754"
   inkscape:cy="12.42861"
   inkscape:window-x="0"
   inkscape:window-y="0"
   inkscape:window-maximized="1"
   inkscape:current-layer="svg97" />
 <defs
   class="ClipPathGroup"
   id="defs8">
  <clipPath
   id="presentation_clip_path"
   clipPathUnits="userSpaceOnUse">
   <rect
   x="0"
   y="0"
   width="21000"
   height="29700"
   id="rect2" />
  </clipPath>
  <clipPath
   id="presentation_clip_path_shrink"
   clipPathUnits="userSpaceOnUse">
   <rect
   x="21"
   y="29"
   width="20958"
   height="29641"
   id="rect5" />
  </clipPath>
 
  
 
   
  </defs>
 <defs
   class="TextShapeIndex"
   id="defs12">
  <g
   ooo:slide="id1"
   ooo:id-list="id3 id4 id5 id6"
   id="g10" />
 </defs>
 <defs
   class="EmbeddedBulletChars"
   id="defs44">
  <g
   id="bullet-char-template-57356"
   transform="matrix(4.8828125e-4,0,0,-4.8828125e-4,0,0)">
   <path
   d="M 580,1141 1163,571 580,0 -4,571 Z"
   id="path14"
   inkscape:connector-curvature="0" />
  </g>
  <g
   id="bullet-char-template-57354"
   transform="matrix(4.8828125e-4,0,0,-4.8828125e-4,0,0)">
   <path
   d="M 8,1128 H 1137 V 0 H 8 Z"
   id="path17"
   inkscape:connector-curvature="0" />
  </g>
  <g
   id="bullet-char-template-10146"
   transform="matrix(4.8828125e-4,0,0,-4.8828125e-4,0,0)">
   <path
   d="M 174,0 602,739 174,1481 1456,739 Z M 1358,739 309,1346 659,739 Z"
   id="path20"
   inkscape:connector-curvature="0" />
  </g>
  <g
   id="bullet-char-template-10132"
   transform="matrix(4.8828125e-4,0,0,-4.8828125e-4,0,0)">
   <path
   d="M 2015,739 1276,0 H 717 l 543,543 H 174 v 393 h 1086 l -543,545 h 557 z"
   id="path23"
   inkscape:connector-curvature="0" />
  </g>
  <g
   id="bullet-char-template-10007"
   transform="matrix(4.8828125e-4,0,0,-4.8828125e-4,0,0)">
   <path
   d="m 0,-2 c -7,16 -16,29 -25,39 l 381,530 c -94,256 -141,385 -141,387 0,25 13,38 40,38 9,0 21,-2 34,-5 21,4 42,12 65,25 l 27,-13 111,-251 280,301 64,-25 24,25 c 21,-10 41,-24 62,-43 C 886,937 835,863 770,784 769,783 710,716 594,584 L 774,223 c 0,-27 -21,-55 -63,-84 l 16,-20 C 717,90 699,76 672,76 641,76 570,178 457,381 L 164,-76 c -22,-34 -53,-51 -92,-51 -42,0 -63,17 -64,51 -7,9 -10,24 -10,44 0,9 1,19 2,30 z"
   id="path26"
   inkscape:connector-curvature="0" />
  </g>
  <g
   id="bullet-char-template-10004"
   transform="matrix(4.8828125e-4,0,0,-4.8828125e-4,0,0)">
   <path
   d="M 285,-33 C 182,-33 111,30 74,156 52,228 41,333 41,471 c 0,78 14,145 41,201 34,71 87,106 158,106 53,0 88,-31 106,-94 l 23,-176 c 8,-64 28,-97 59,-98 l 735,706 c 11,11 33,17 66,17 42,0 63,-15 63,-46 V 965 c 0,-36 -10,-64 -30,-84 L 442,47 C 390,-6 338,-33 285,-33 Z"
   id="path29"
   inkscape:connector-curvature="0" />
  </g>
  <g
   id="bullet-char-template-9679"
   transform="matrix(4.8828125e-4,0,0,-4.8828125e-4,0,0)">
   <path
   d="M 813,0 C 632,0 489,54 383,161 276,268 223,411 223,592 c 0,181 53,324 160,431 106,107 249,161 430,161 179,0 323,-54 432,-161 108,-107 162,-251 162,-431 0,-180 -54,-324 -162,-431 C 1136,54 992,0 813,0 Z"
   id="path32"
   inkscape:connector-curvature="0" />
  </g>
  <g
   id="bullet-char-template-8226"
   transform="matrix(4.8828125e-4,0,0,-4.8828125e-4,0,0)">
   <path
   d="m 346,457 c -73,0 -137,26 -191,78 -54,51 -81,114 -81,188 0,73 27,136 81,188 54,52 118,78 191,78 73,0 134,-26 185,-79 51,-51 77,-114 77,-187 0,-75 -25,-137 -76,-188 -50,-52 -112,-78 -186,-78 z"
   id="path35"
   inkscape:connector-curvature="0" />
  </g>
  <g
   id="bullet-char-template-8211"
   transform="matrix(4.8828125e-4,0,0,-4.8828125e-4,0,0)">
   <path
   d="M -4,459 H 1135 V 606 H -4 Z"
   id="path38"
   inkscape:connector-curvature="0" />
  </g>
  <g
   id="bullet-char-template-61548"
   transform="matrix(4.8828125e-4,0,0,-4.8828125e-4,0,0)">
   <path
   d="m 173,740 c 0,163 58,303 173,419 116,115 255,173 419,173 163,0 302,-58 418,-173 116,-116 174,-256 174,-419 0,-163 -58,-303 -174,-418 C 1067,206 928,148 765,148 601,148 462,206 346,322 231,437 173,577 173,740 Z"
   id="path41"
   inkscape:connector-curvature="0" />
  </g>
 </defs>
 <defs
   class="TextEmbeddedBitmaps"
   id="defs46" />
 <g
   id="g51"
   transform="matrix(1.0011633,0,0,1.0309579,-1638.6579,-6717.2786)">
  <g
   id="id2"
   class="Master_Slide">
   <g
   id="bg-id2"
   class="Background" />
   <g
   id="bo-id2"
   class="BackgroundObjects" />
  </g>
 </g>
 
<path
   style="fill:#295e9e;stroke-width:238.9462738;fill-opacity:1"
   d="M 353.06912,576.89911 V 432.96574 h -20.37217 c -18.00177,0 -21.04368,4.88241 -26.14331,41.96121 -3.7821,27.49912 -0.77013,67.16366 8.73905,115.08526 14.17454,71.4326 14.12341,73.6444 -2.21047,95.6221 -24.41112,32.8459 -64.33435,34.8983 -84.37523,4.3376 -12.23616,-18.6591 -15.33787,-40.59 -15.33787,-108.4475 0,-46.7823 3.15398,-100.29866 7.00884,-118.92533 4.1801,-20.1982 3.92562,-30.44955 -0.63051,-25.4 -4.20165,4.65666 -14.26236,38.94667 -22.35715,76.20003 -28.48636,131.0982 -46.62706,181.989 -68.41034,191.9141 -56.085607,25.5543 -89.057337,-21.5592 -63.733877,-91.0698 8.33097,-22.8677 25.9171,-70.8873 39.080287,-106.71028 13.16319,-35.82294 20.82027,-68.20794 17.01573,-71.96667 -3.80455,-3.75873 -18.94487,7.45362 -33.645167,24.91632 -33.15896,39.39003 -71.16958,42.27616 -83.6251202,6.34963 -5.93253,-17.11167 13.6184902,-63.25909 40.6746802,-96.00684 41.4312,-50.14669 62.673337,-56.39317 191.773867,-56.39317 H 353.06912 V 212.83239 111.23238 h 55.03334 55.03333 v 46.56668 c 0,40.92222 -2.05252,46.56667 -16.93333,46.56667 -16.47256,0 -16.93333,5.64445 -16.93333,207.43334 0,201.78894 0.46075,207.43334 16.93333,207.43334 15.05185,0 16.93333,5.6445 16.93333,50.8 v 50.8 h -55.03333 -55.03334 z m 372.53335,93.1333 c 0,-45.1555 1.88148,-50.8 16.93333,-50.8 16.47256,0 16.93334,-5.6444 16.93334,-207.43334 0,-201.78889 -0.46078,-207.43334 -16.93334,-207.43334 -14.88081,0 -16.93333,-5.64445 -16.93333,-46.56667 v -46.56668 h 59.26667 59.26666 v 304.80003 304.8 h -59.26666 -59.26667 z m -220.13334,-83.7608 c 0,-49.5085 0.89954,-51.7059 21.16667,-51.7059 h 21.16666 V 420.26574 305.96573 H 526.6358 c -19.89209,0 -21.16565,-2.67662 -21.14985,-44.45 0.0169,-44.11495 0.22411,-44.46395 27.51667,-46.30091 16.66836,-1.12188 32.0751,-8.62519 39.11587,-19.05 13.88563,-20.55953 37.21102,-22.19586 55.51254,-3.89433 11.18218,11.18217 13.30477,39.54776 13.30477,177.80001 v 164.49521 h 21.16667 c 20.01212,0 21.16666,2.54 21.16666,46.5667 v 46.5667 H 607.7616 c -41.52914,0 -81.53414,2.3126 -88.90001,5.1391 -11.3112,4.3406 -13.39246,-2.8961 -13.39246,-46.5666 z"
   id="path983"
   inkscape:connector-curvature="0" /></svg>